<?xml version="1.0" standalone="no"?>
<!DOCTYPE svg PUBLIC "-//W3C//DTD SVG 20010904//EN"
 "http://www.w3.org/TR/2001/REC-SVG-20010904/DTD/svg10.dtd">
<svg version="1.0" xmlns="http://www.w3.org/2000/svg"
 width="512.000000pt" height="512.000000pt" viewBox="0 0 512.000000 512.000000"
 preserveAspectRatio="xMidYMid meet">

<g transform="translate(0.000000,512.000000) scale(0.100000,-0.100000)"
fill="#000000" stroke="none">
<path d="M530 5104 c-211 -45 -399 -228 -454 -440 -14 -56 -16 -273 -16 -2104
0 -1831 2 -2048 16 -2104 55 -214 244 -396 459 -441 105 -22 3945 -22 4050 0
176 37 335 163 413 325 22 47 45 109 51 138 15 75 15 4089 0 4164 -6 29 -29
91 -51 138 -78 162 -237 288 -413 325 -102 21 -3955 21 -4055 -1z m3965 -394
c64 -31 134 -101 165 -165 l25 -50 3 -1915 c3 -2112 7 -1966 -60 -2066 -37
-54 -110 -108 -171 -126 -33 -10 -431 -13 -1902 -13 -2138 0 -1921 -11 -2031
99 -110 110 -99 -115 -99 2091 l0 1920 22 48 c46 99 115 161 216 193 34 10
384 12 1912 11 l1870 -2 50 -25z"/>
<path d="M713 4495 c-17 -7 -36 -22 -42 -34 -8 -14 -11 -577 -11 -1909 l0
-1889 26 -27 27 -26 1839 0 c1242 0 1846 3 1859 10 52 28 49 -79 49 1937 0
1473 -3 1873 -13 1893 -7 14 -28 33 -47 42 -33 17 -141 18 -1845 18 -1516 -1
-1815 -3 -1842 -15z m2164 -594 c223 -42 387 -118 514 -238 190 -180 280 -440
249 -722 -40 -364 -224 -612 -553 -747 -191 -77 -377 -107 -647 -102 l-190 3
0 -502 0 -503 -315 0 -315 0 0 1389 c0 765 3 1392 8 1395 11 7 263 36 397 46
66 4 260 7 430 5 268 -2 325 -5 422 -24z"/>
<path d="M2360 3444 c-14 -2 -44 -7 -67 -10 l-43 -5 0 -418 0 -418 31 -7 c59
-11 293 -6 362 9 132 28 253 109 313 210 61 106 72 298 22 406 -48 105 -127
172 -251 211 -47 15 -97 21 -202 23 -77 2 -151 2 -165 -1z"/>
</g>
</svg>
